<?xml version='1.0' encoding='iso-8859-1'?>
<svg version="1.1" xmlns="http://www.w3.org/2000/svg" viewBox="0 0 490.1 490.1" xmlns:xlink="http://www.w3.org/1999/xlink" enable-background="new 0 0 490.1 490.1">
  <g>
    <g>
      <path d="m447.25,360.1l-187.7-49.1 165.8-33.9-4.2-21.8-210.6,43.7c-13,2.8-9.4,20.9 0,21.8l168.9,44.8-191.8,13.1c-10.5,1.5-12.6,13.3-6.3,19.7l62.6,59-136.6,10.9 1,21.8 159.5-13.1c7.7,0.6 14.9-11.2 6.3-19.7l-61.5-59 233.5-16.4c11.5-0.5 12.8-18.6 1.1-21.8z"/>
      <path d="m460.85,81.8c0-27.2-21.9-49.2-49-49.2s-49,22-49,49.2 21.9,49.2 49,49.2c26.1,0 49-22 49-49.2zm-77.1,1c0-15.7 12.5-28.3 28.1-28.3 14.6,0 28.1,11.5 28.1,27.2s-12.5,28.3-28.1,28.3c-15.6,0-28.1-11.5-28.1-27.2z"/>
      <path d="m490.05,78.6c0-44-35.4-78.6-78.2-78.6-42.7,0-78.2,34.6-78.2,78.6 0,43.9 78.2,161.3 78.2,161.3s78.2-117.4 78.2-161.3zm-78.2-57.6c32.3,0 57.3,26.2 57.3,57.6 0,25.1-36.5,88-57.3,122.6-20.8-34.6-57.3-97.4-57.3-122.6 0-31.4 25-57.6 57.3-57.6z"/>
      <path d="m78.25,269.9c-27.1,0-49,22-49,49.2s21.9,49.2 49,49.2c26.1,0 49-22 49-49.2s-21.9-49.2-49-49.2zm0,77.6c-15.6,0-28.1-11.5-28.1-27.2s12.5-28.3 28.1-28.3c14.6,0 28.1,11.5 28.1,27.2 0,15.7-12.5,28.3-28.1,28.3z"/>
      <path d="m78.25,237.5c-42.7,0-78.2,34.6-78.2,78.6 0,43.9 78.2,161.3 78.2,161.3s78.2-117.4 78.2-161.3c0-44.1-35.5-78.6-78.2-78.6zm-57.3,78.5c-3.55271e-15-31.4 25-57.6 57.3-57.6s57.3,26.2 57.3,57.6c0,25.1-36.5,88-57.3,122.6-20.9-34.6-57.3-97.4-57.3-122.6z"/>
    </g>
  </g>
</svg>
