<?xml version="1.0" encoding="iso-8859-1"?>
<!-- Generator: Adobe Illustrator 18.0.0, SVG Export Plug-In . SVG Version: 6.00 Build 0)  -->
<!DOCTYPE svg PUBLIC "-//W3C//DTD SVG 1.1//EN" "http://www.w3.org/Graphics/SVG/1.1/DTD/svg11.dtd">
<svg version="1.1" id="Capa_1" xmlns="http://www.w3.org/2000/svg" xmlns:xlink="http://www.w3.org/1999/xlink" x="0px" y="0px"
	 viewBox="0 0 60 60" style="enable-background:new 0 0 60 60;" xml:space="preserve">
<g>
	<path style="fill:#26B99A;" d="M30,60c-0.553,0-1-0.448-1-1V38c0-0.552,0.447-1,1-1s1,0.448,1,1v21C31,59.552,30.553,60,30,60z"/>
	<path style="fill:#26B99A;" d="M30,23c-0.553,0-1-0.448-1-1V1c0-0.552,0.447-1,1-1s1,0.448,1,1v21C31,22.552,30.553,23,30,23z"/>
	<path style="fill:#26B99A;" d="M40,12c-0.256,0-0.512-0.098-0.707-0.293l-10-10c-0.391-0.391-0.391-1.023,0-1.414
		s1.023-0.391,1.414,0l10,10c0.391,0.391,0.391,1.023,0,1.414C40.512,11.902,40.256,12,40,12z"/>
	<path style="fill:#26B99A;" d="M20,12c-0.256,0-0.512-0.098-0.707-0.293c-0.391-0.391-0.391-1.023,0-1.414l10-10
		c0.391-0.391,1.023-0.391,1.414,0s0.391,1.023,0,1.414l-10,10C20.512,11.902,20.256,12,20,12z"/>
	<path style="fill:#26B99A;" d="M30,60c-0.256,0-0.512-0.098-0.707-0.293l-10-10c-0.391-0.391-0.391-1.023,0-1.414
		s1.023-0.391,1.414,0l10,10c0.391,0.391,0.391,1.023,0,1.414C30.512,59.902,30.256,60,30,60z"/>
	<path style="fill:#26B99A;" d="M30,60c-0.256,0-0.512-0.098-0.707-0.293c-0.391-0.391-0.391-1.023,0-1.414l10-10
		c0.391-0.391,1.023-0.391,1.414,0s0.391,1.023,0,1.414l-10,10C30.512,59.902,30.256,60,30,60z"/>
	<path style="fill:#26B99A;" d="M22,31H1c-0.553,0-1-0.448-1-1s0.447-1,1-1h21c0.553,0,1,0.448,1,1S22.553,31,22,31z"/>
	<path style="fill:#26B99A;" d="M59,31H38c-0.553,0-1-0.448-1-1s0.447-1,1-1h21c0.553,0,1,0.448,1,1S59.553,31,59,31z"/>
	<path style="fill:#26B99A;" d="M49,41c-0.256,0-0.512-0.098-0.707-0.293c-0.391-0.391-0.391-1.023,0-1.414l10-10
		c0.391-0.391,1.023-0.391,1.414,0s0.391,1.023,0,1.414l-10,10C49.512,40.902,49.256,41,49,41z"/>
	<path style="fill:#26B99A;" d="M59,31c-0.256,0-0.512-0.098-0.707-0.293l-10-10c-0.391-0.391-0.391-1.023,0-1.414
		s1.023-0.391,1.414,0l10,10c0.391,0.391,0.391,1.023,0,1.414C59.512,30.902,59.256,31,59,31z"/>
	<path style="fill:#26B99A;" d="M1,31c-0.256,0-0.512-0.098-0.707-0.293c-0.391-0.391-0.391-1.023,0-1.414l10-10
		c0.391-0.391,1.023-0.391,1.414,0s0.391,1.023,0,1.414l-10,10C1.512,30.902,1.256,31,1,31z"/>
	<path style="fill:#26B99A;" d="M11,41c-0.256,0-0.512-0.098-0.707-0.293l-10-10c-0.391-0.391-0.391-1.023,0-1.414
		s1.023-0.391,1.414,0l10,10c0.391,0.391,0.391,1.023,0,1.414C11.512,40.902,11.256,41,11,41z"/>
	<g>
		<rect x="22" y="22" style="fill:#B1E97C;" width="16" height="16"/>
		<path style="fill:#B1E97C;" d="M39,39H21V21h18V39z M23,37h14V23H23V37z"/>
	</g>
</g>
<g>
</g>
<g>
</g>
<g>
</g>
<g>
</g>
<g>
</g>
<g>
</g>
<g>
</g>
<g>
</g>
<g>
</g>
<g>
</g>
<g>
</g>
<g>
</g>
<g>
</g>
<g>
</g>
<g>
</g>
</svg>
